<svg width="46" height="43" viewBox="0 0 46 43" fill="none" xmlns="http://www.w3.org/2000/svg">
<path d="M9.92387 0.0471488C8.28546 0.303857 5.72593 1.64025 3.98182 3.1352C2.80399 4.14693 1.6488 5.63433 1.02213 6.95562C0.667267 7.68045 0.312406 8.76013 0.13875 9.63596C-0.0500059 10.5344 -0.0424557 12.7165 0.13875 13.7131C0.584215 16.0839 1.42984 18.1904 2.95499 20.7424C4.6538 23.5813 6.76031 26.1483 10.6034 30.0518C11.8265 31.3052 13.2913 32.7926 13.8424 33.3588C14.4012 33.9326 14.8844 34.4008 14.9146 34.4008C15.058 34.4008 15.3978 32.785 15.511 31.5694C15.7451 29.0401 15.4204 26.8883 14.5446 25.1517C14.0388 24.1324 12.9742 22.6224 11.1017 20.2516C10.6185 19.64 10.0522 18.8926 9.85591 18.5905C8.79133 17.0125 7.9759 15.0344 7.53799 12.9581C7.29638 11.8331 7.37943 8.88093 7.64369 8.88093C7.67389 8.88093 7.8098 9.19804 7.9457 9.58311C8.62522 11.5009 10.1051 13.5696 11.6982 14.8079C13.2988 16.0537 14.8693 16.7181 17.1721 17.1182C17.6048 17.1818 19.3541 17.4568 20.7018 17.1085C20.7018 17.1085 18.5783 15.0249 18.1989 13.7886C17.8195 12.5522 17.9271 11.3272 18.3952 10.3155C18.9691 9.08479 20.0336 8.21651 21.6645 7.66534C22.3969 7.41619 22.3969 7.44639 21.823 6.2761C20.2224 3.0295 17.6629 1.00603 14.1143 0.183051C13.5706 0.054697 13.1252 0.0244987 11.8869 0.00184802C11.0338 -0.00570223 10.1504 0.00939757 9.92387 0.0471488Z" fill="url(#paint0_linear_873_1575)"/>
<path d="M32.9145 0.0169837C31.7517 0.145338 30.4908 0.500201 29.7056 0.930565C27.5387 2.1084 25.6964 3.76946 24.4808 5.63437C24.2392 6.00433 23.5144 7.37847 23.5144 7.46908C23.5144 7.48418 23.6881 7.52193 23.8995 7.54458C24.9339 7.66538 26.3231 8.66202 27.1385 9.8625C28.256 11.5085 28.4145 13.2148 27.584 14.7702C27.282 15.3364 26.3382 16.3633 25.7417 16.771C25.5152 16.9295 25.3265 17.0805 25.3265 17.1107C25.3265 17.1409 25.6209 17.2391 25.9909 17.3297C29.1695 18.13 31.2685 19.8892 32.0764 22.4412C32.401 23.4756 32.5143 24.2835 32.5143 25.6576C32.5067 27.5603 32.25 29.1609 31.5026 31.9092C31.11 33.3513 30.823 34.5669 30.8683 34.6047C30.9438 34.6802 31.2157 34.431 33.2089 32.4906C39.3397 26.5183 42.005 23.2868 43.8321 19.6023C45.3497 16.5369 46.0896 13.4187 45.9915 10.5043C45.8782 7.43887 44.9193 5.18135 42.911 3.25604C41.3103 1.72334 39.3397 0.741809 36.8406 0.235943C36.0554 0.0773875 35.5872 0.0320861 34.5378 0.00943533C33.8129 -0.00566516 33.0806 0.00188324 32.9145 0.0169837Z" fill="url(#paint1_linear_873_1575)"/>
<path d="M19.3314 23.0755C19.1729 23.5964 19.1729 24.5931 19.3314 25.1216C19.5655 25.9144 20.2828 26.8657 21.0302 27.3564C21.1888 27.4622 21.3247 27.5679 21.3247 27.583C21.3247 27.6358 20.7735 27.515 20.0034 27.2885C17.7761 26.6316 16.6813 25.4991 15.209 22.3431C14.9749 21.8297 14.756 21.4371 14.7258 21.4673C14.6427 21.5503 14.6805 22.4488 14.7937 23.234C15.0051 24.6535 15.4733 26.0201 16.5076 28.2851C17.2627 29.9235 17.6779 31.0183 17.9497 32.0603C18.0932 32.6114 18.1158 32.8908 18.1083 34.0611C18.1083 35.3295 18.0932 35.4654 17.8969 36.0996C17.7761 36.4696 17.6704 36.8471 17.6477 36.9302C17.6251 37.0434 17.9195 37.3983 18.7803 38.327C20.0638 39.7011 22.8649 42.3663 23.0235 42.3663C23.167 42.3663 25.0998 40.6524 26.2777 39.4746C28.3691 37.3983 28.8145 36.4922 28.9882 34.0384C29.041 33.2607 29.0033 33.1324 28.7919 33.3891C28.6107 33.6156 27.3271 34.4537 26.7005 34.7708C25.9832 35.1332 24.8054 35.5409 23.9673 35.7221C23.2802 35.8731 20.615 35.9713 20.5395 35.8505C20.5168 35.8127 20.8792 35.4956 21.3473 35.1483C24.6241 32.7322 26.0058 31.2599 27.0855 29.0628L27.4253 28.3606L27.2365 28.2096C26.9421 27.9831 26.1342 27.7566 25.3867 27.7038C25.0243 27.6811 24.7223 27.6358 24.7223 27.6132C24.7223 27.5905 24.896 27.4697 25.1074 27.3413C25.6434 27.0242 26.3305 26.307 26.5721 25.8162C26.8817 25.1744 27.0327 24.2382 26.927 23.5587C26.5918 21.4357 24.9464 20.0283 22.88 20.1384C21.0837 20.2341 19.8468 21.3319 19.3314 23.0755Z" fill="url(#paint2_linear_873_1575)"/>
<defs>
<linearGradient id="paint0_linear_873_1575" x1="11.1177" y1="34.4008" x2="11.1177" y2="-3.8147e-05" gradientUnits="userSpaceOnUse">
<stop stop-color="#1A9BDA"/>
<stop offset="1" stop-color="#BFE3F5"/>
</linearGradient>
<linearGradient id="paint1_linear_873_1575" x1="34.7573" y1="34.6162" x2="34.7573" y2="0.00120163" gradientUnits="userSpaceOnUse">
<stop stop-color="#FF2600"/>
<stop offset="1" stop-color="#FFA200"/>
</linearGradient>
<linearGradient id="paint2_linear_873_1575" x1="21.8452" y1="42.3663" x2="21.8452" y2="20.1324" gradientUnits="userSpaceOnUse">
<stop stop-color="#00B03D"/>
<stop offset="1" stop-color="#AFC869"/>
</linearGradient>
</defs>
</svg>
