<svg width="119" height="43" viewBox="0 0 119 43" fill="none" xmlns="http://www.w3.org/2000/svg">
<path d="M9.92387 0.0471488C8.28546 0.303857 5.72593 1.64025 3.98182 3.1352C2.80399 4.14693 1.6488 5.63433 1.02213 6.95562C0.667267 7.68045 0.312406 8.76013 0.13875 9.63596C-0.0500059 10.5344 -0.0424557 12.7165 0.13875 13.7131C0.584215 16.0839 1.42984 18.1904 2.95499 20.7424C4.6538 23.5813 6.76031 26.1483 10.6034 30.0518C11.8265 31.3052 13.2913 32.7926 13.8424 33.3588C14.4012 33.9326 14.8844 34.4008 14.9146 34.4008C15.058 34.4008 15.3978 32.785 15.511 31.5694C15.7451 29.0401 15.4204 26.8883 14.5446 25.1517C14.0388 24.1324 12.9742 22.6224 11.1017 20.2516C10.6185 19.64 10.0522 18.8926 9.85591 18.5905C8.79133 17.0125 7.9759 15.0344 7.53799 12.9581C7.29638 11.8331 7.37943 8.88093 7.64369 8.88093C7.67389 8.88093 7.8098 9.19804 7.9457 9.58311C8.62522 11.5009 10.1051 13.5696 11.6982 14.8079C13.2988 16.0537 14.8693 16.7181 17.1721 17.1182C17.6048 17.1818 19.3541 17.4568 20.7018 17.1085C20.7018 17.1085 18.5783 15.0249 18.1989 13.7886C17.8195 12.5522 17.9271 11.3272 18.3952 10.3155C18.9691 9.08479 20.0336 8.21651 21.6645 7.66534C22.3969 7.41619 22.3969 7.44639 21.823 6.2761C20.2224 3.0295 17.6629 1.00603 14.1143 0.183051C13.5706 0.054697 13.1252 0.0244987 11.8869 0.00184802C11.0338 -0.00570223 10.1504 0.00939757 9.92387 0.0471488Z" fill="url(#paint0_linear_0_1)"/>
<path d="M32.9145 0.0169837C31.7517 0.145338 30.4908 0.500201 29.7056 0.930565C27.5387 2.1084 25.6964 3.76946 24.4808 5.63437C24.2392 6.00433 23.5144 7.37847 23.5144 7.46908C23.5144 7.48418 23.6881 7.52193 23.8995 7.54458C24.9339 7.66538 26.3231 8.66202 27.1385 9.8625C28.256 11.5085 28.4145 13.2148 27.584 14.7702C27.282 15.3364 26.3382 16.3633 25.7417 16.771C25.5152 16.9295 25.3265 17.0805 25.3265 17.1107C25.3265 17.1409 25.6209 17.2391 25.9909 17.3297C29.1695 18.13 31.2685 19.8892 32.0764 22.4412C32.401 23.4756 32.5143 24.2835 32.5143 25.6576C32.5067 27.5603 32.25 29.1609 31.5026 31.9092C31.11 33.3513 30.823 34.5669 30.8683 34.6047C30.9438 34.6802 31.2157 34.431 33.2089 32.4906C39.3397 26.5183 42.005 23.2868 43.8321 19.6023C45.3497 16.5369 46.0896 13.4187 45.9915 10.5043C45.8782 7.43887 44.9193 5.18135 42.911 3.25604C41.3103 1.72334 39.3397 0.741809 36.8406 0.235943C36.0554 0.0773875 35.5872 0.0320861 34.5378 0.00943533C33.8129 -0.00566516 33.0806 0.00188324 32.9145 0.0169837Z" fill="url(#paint1_linear_0_1)"/>
<path d="M19.3314 23.0755C19.1729 23.5964 19.1729 24.5931 19.3314 25.1216C19.5655 25.9144 20.2828 26.8657 21.0302 27.3564C21.1888 27.4622 21.3247 27.5679 21.3247 27.583C21.3247 27.6358 20.7735 27.515 20.0034 27.2885C17.7761 26.6316 16.6813 25.4991 15.209 22.3431C14.9749 21.8297 14.756 21.4371 14.7258 21.4673C14.6427 21.5503 14.6805 22.4488 14.7937 23.234C15.0051 24.6535 15.4733 26.0201 16.5076 28.2851C17.2627 29.9235 17.6779 31.0183 17.9497 32.0603C18.0932 32.6114 18.1158 32.8908 18.1083 34.0611C18.1083 35.3295 18.0932 35.4654 17.8969 36.0996C17.7761 36.4696 17.6704 36.8471 17.6477 36.9302C17.6251 37.0434 17.9195 37.3983 18.7803 38.327C20.0638 39.7011 22.8649 42.3663 23.0235 42.3663C23.167 42.3663 25.0998 40.6524 26.2777 39.4746C28.3691 37.3983 28.8145 36.4922 28.9882 34.0384C29.041 33.2607 29.0033 33.1324 28.7919 33.3891C28.6107 33.6156 27.3271 34.4537 26.7005 34.7708C25.9832 35.1332 24.8054 35.5409 23.9673 35.7221C23.2802 35.8731 20.615 35.9713 20.5395 35.8505C20.5168 35.8127 20.8792 35.4956 21.3473 35.1483C24.6241 32.7322 26.0058 31.2599 27.0855 29.0628L27.4253 28.3606L27.2365 28.2096C26.9421 27.9831 26.1342 27.7566 25.3867 27.7038C25.0243 27.6811 24.7223 27.6358 24.7223 27.6132C24.7223 27.5905 24.896 27.4697 25.1074 27.3413C25.6434 27.0242 26.3305 26.307 26.5721 25.8162C26.8817 25.1744 27.0327 24.2382 26.927 23.5587C26.5918 21.4357 24.9464 20.0283 22.88 20.1384C21.0837 20.2341 19.8468 21.3319 19.3314 23.0755Z" fill="url(#paint2_linear_0_1)"/>
<path d="M74.608 23.4489H67.5057C67.411 22.7197 67.2169 22.0616 66.9233 21.4744C66.6297 20.8873 66.2415 20.3854 65.7585 19.9688C65.2756 19.5521 64.7027 19.2348 64.0398 19.017C63.3864 18.7898 62.6619 18.6761 61.8665 18.6761C60.4555 18.6761 59.2386 19.0218 58.2159 19.7131C57.2027 20.4044 56.4214 21.4034 55.8722 22.7102C55.3324 24.017 55.0625 25.5985 55.0625 27.4545C55.0625 29.3864 55.3371 31.0057 55.8864 32.3125C56.4451 33.6098 57.2263 34.59 58.2301 35.2528C59.2434 35.9062 60.4413 36.233 61.8239 36.233C62.6004 36.233 63.3059 36.1335 63.9403 35.9347C64.5843 35.7358 65.1477 35.447 65.6307 35.0682C66.1231 34.6799 66.5256 34.2112 66.8381 33.6619C67.16 33.1032 67.3826 32.4735 67.5057 31.7727L74.608 31.8153C74.4848 33.1032 74.1108 34.3722 73.4858 35.6222C72.8703 36.8722 72.0227 38.0133 70.9432 39.0455C69.8636 40.0682 68.5473 40.8826 66.9943 41.4886C65.4508 42.0947 63.6799 42.3977 61.6818 42.3977C59.0492 42.3977 56.6913 41.8201 54.608 40.6648C52.5341 39.5 50.8958 37.8049 49.6932 35.5795C48.4905 33.3542 47.8892 30.6458 47.8892 27.4545C47.8892 24.2538 48.5 21.5407 49.7216 19.3153C50.9432 17.09 52.5956 15.3996 54.679 14.2443C56.7623 13.089 59.0966 12.5114 61.6818 12.5114C63.4432 12.5114 65.072 12.7576 66.5682 13.25C68.0644 13.733 69.3807 14.4432 70.517 15.3807C71.6534 16.3087 72.5767 17.4498 73.2869 18.804C73.9972 20.1581 74.4375 21.7064 74.608 23.4489Z" fill="url(#paint3_linear_0_1)"/>
<path d="M97.7223 22.4119C97.5613 21.8153 97.3246 21.2898 97.0121 20.8352C96.6996 20.3712 96.3161 19.9782 95.8615 19.6562C95.407 19.3343 94.8861 19.0928 94.299 18.9318C93.7119 18.7614 93.0679 18.6761 92.3672 18.6761C90.9562 18.6761 89.7346 19.017 88.7024 19.6989C87.6797 20.3807 86.889 21.375 86.3303 22.6818C85.7715 23.9792 85.4922 25.5559 85.4922 27.4119C85.4922 29.2775 85.7621 30.8684 86.3018 32.1847C86.8416 33.5009 87.6229 34.5047 88.6456 35.196C89.6683 35.8873 90.9089 36.233 92.3672 36.233C93.6551 36.233 94.7441 36.0246 95.6342 35.608C96.5339 35.1818 97.2157 34.5805 97.6797 33.804C98.1437 33.0275 98.3757 32.1136 98.3757 31.0625L99.6825 31.2188H92.6087V26.0909H105.151V29.9403C105.151 32.5445 104.597 34.7746 103.489 36.6307C102.391 38.4867 100.876 39.9119 98.9439 40.9062C97.0215 41.9006 94.8104 42.3977 92.3104 42.3977C89.5357 42.3977 87.0973 41.7964 84.995 40.5938C82.8928 39.3911 81.2545 37.6771 80.0803 35.4517C78.906 33.2169 78.3189 30.5653 78.3189 27.4972C78.3189 25.1108 78.674 22.9943 79.3842 21.1477C80.0945 19.2917 81.084 17.7197 82.353 16.4318C83.6314 15.1439 85.1087 14.1686 86.7848 13.5057C88.4704 12.8428 90.2839 12.5114 92.2251 12.5114C93.9107 12.5114 95.478 12.7528 96.9268 13.2358C98.3852 13.7188 99.6731 14.4006 100.79 15.2812C101.917 16.1619 102.831 17.2083 103.532 18.4205C104.233 19.6326 104.668 20.9631 104.839 22.4119H97.7223Z" fill="url(#paint4_linear_0_1)"/>
<path d="M109.846 42V14.7273H118.528V42H109.846ZM114.196 11.549C112.977 11.549 111.929 11.1465 111.053 10.3416C110.177 9.52486 109.739 8.54238 109.739 7.39418C109.739 6.25781 110.177 5.28717 111.053 4.48224C111.929 3.66548 112.977 3.2571 114.196 3.2571C115.427 3.2571 116.475 3.66548 117.339 4.48224C118.215 5.28717 118.653 6.25781 118.653 7.39418C118.653 8.54238 118.215 9.52486 117.339 10.3416C116.475 11.1465 115.427 11.549 114.196 11.549Z" fill="url(#paint5_linear_0_1)"/>
<defs>
<linearGradient id="paint0_linear_0_1" x1="11.1177" y1="34.4008" x2="11.1177" y2="-3.8147e-05" gradientUnits="userSpaceOnUse">
<stop stop-color="#1A9BDA"/>
<stop offset="1" stop-color="#BFE3F5"/>
</linearGradient>
<linearGradient id="paint1_linear_0_1" x1="34.7573" y1="34.6162" x2="34.7573" y2="0.00120163" gradientUnits="userSpaceOnUse">
<stop stop-color="#FF2600"/>
<stop offset="1" stop-color="#FFA200"/>
</linearGradient>
<linearGradient id="paint2_linear_0_1" x1="21.8452" y1="42.3663" x2="21.8452" y2="20.1324" gradientUnits="userSpaceOnUse">
<stop stop-color="#00B03D"/>
<stop offset="1" stop-color="#AFC869"/>
</linearGradient>
<linearGradient id="paint3_linear_0_1" x1="92.5" y1="-7" x2="92.5" y2="47" gradientUnits="userSpaceOnUse">
<stop stop-color="#BCE2F4"/>
<stop offset="1" stop-color="#2DA3DD"/>
</linearGradient>
<linearGradient id="paint4_linear_0_1" x1="92.5" y1="-7" x2="92.5" y2="47" gradientUnits="userSpaceOnUse">
<stop stop-color="#FF9600"/>
<stop offset="1" stop-color="#FF3A00"/>
</linearGradient>
<linearGradient id="paint5_linear_0_1" x1="92.5" y1="-7" x2="92.5" y2="47" gradientUnits="userSpaceOnUse">
<stop stop-color="#AEC868"/>
<stop offset="1" stop-color="#0FB241"/>
</linearGradient>
</defs>
</svg>
